<svg width="16" height="16" viewBox="0 0 16 16" fill="none" xmlns="http://www.w3.org/2000/svg">
<path d="M13.3333 14.6667H2.66663V13.3334C2.66663 12.4493 3.01782 11.6015 3.64294 10.9763C4.26806 10.3512 5.1159 10 5.99996 10H9.99996C10.884 10 11.7319 10.3512 12.357 10.9763C12.9821 11.6015 13.3333 12.4493 13.3333 13.3334V14.6667ZM7.99996 8.66669C7.47467 8.66669 6.95453 8.56322 6.46923 8.36221C5.98392 8.16119 5.54297 7.86655 5.17153 7.49511C4.8001 7.12368 4.50546 6.68272 4.30444 6.19742C4.10342 5.71212 3.99996 5.19197 3.99996 4.66669C3.99996 4.1414 4.10342 3.62126 4.30444 3.13595C4.50546 2.65065 4.8001 2.20969 5.17153 1.83826C5.54297 1.46683 5.98392 1.17219 6.46923 0.971169C6.95453 0.77015 7.47467 0.666687 7.99996 0.666687C9.06082 0.666687 10.0782 1.08811 10.8284 1.83826C11.5785 2.58841 12 3.60582 12 4.66669C12 5.72755 11.5785 6.74497 10.8284 7.49511C10.0782 8.24526 9.06082 8.66669 7.99996 8.66669V8.66669Z" fill="#2D3748"/>
</svg>
